<?xml version="1.0" standalone="no"?>
<!DOCTYPE svg PUBLIC "-//W3C//DTD SVG 20010904//EN"
 "http://www.w3.org/TR/2001/REC-SVG-20010904/DTD/svg10.dtd">
<svg version="1.0" xmlns="http://www.w3.org/2000/svg"
 width="225.000000pt" height="225.000000pt" viewBox="0 0 225.000000 225.000000"
 preserveAspectRatio="xMidYMid meet">

<g transform="translate(0.000000,225.000000) scale(0.100000,-0.100000)"
fill="#000000" stroke="none">
<path d="M1053 1626 c-76 -19 -156 -63 -215 -119 -52 -48 -49 -47 42 14 75 50
167 72 275 67 81 -4 104 -10 167 -40 176 -85 270 -231 270 -423 0 -192 -94
-338 -270 -423 -63 -30 -86 -36 -166 -40 -147 -7 -245 28 -350 127 -43 40 -53
47 -38 24 35 -50 120 -119 186 -151 289 -141 639 20 722 331 18 67 18 197 0
264 -47 177 -193 321 -371 368 -70 18 -180 18 -252 1z"/>
<path d="M582 1227 l-22 -32 107 -3 c86 -2 110 -6 120 -19 25 -33 -2 -43 -118
-43 l-109 0 0 -71 0 -70 33 3 c28 3 32 7 35 36 l3 32 78 0 c65 0 84 4 112 23
65 44 60 124 -11 159 -25 13 -59 18 -120 18 -84 0 -85 -1 -108 -33z"/>
<path d="M933 1248 c-9 -11 -73 -233 -73 -252 0 -4 18 -6 39 -6 l39 0 13 65
c7 36 16 65 19 65 3 0 21 -27 40 -60 52 -92 75 -91 130 6 16 30 32 54 35 54 4
0 14 -35 29 -102 5 -24 11 -28 41 -28 43 0 43 1 9 133 -30 118 -38 137 -63
137 -23 0 -40 -20 -83 -98 l-35 -63 -44 78 c-45 79 -73 100 -96 71z"/>
<path d="M1286 1225 l-27 -35 50 0 51 0 0 -101 0 -100 33 3 32 3 3 98 3 97 34
0 c24 0 39 7 54 26 12 15 21 31 21 35 0 5 -51 9 -114 9 l-114 0 -26 -35z"/>
</g>
</svg>
